<?xml version="1.0" standalone="no"?>
<!DOCTYPE svg PUBLIC "-//W3C//DTD SVG 20010904//EN"
 "http://www.w3.org/TR/2001/REC-SVG-20010904/DTD/svg10.dtd">
<svg version="1.0" xmlns="http://www.w3.org/2000/svg"
 width="512.000000pt" height="512.000000pt" viewBox="0 0 512.000000 512.000000"
 preserveAspectRatio="xMidYMid meet">
<metadata>
Created by potrace 1.14, written by Peter Selinger 2001-2017
</metadata>
<g transform="translate(0.000000,512.000000) scale(0.100000,-0.100000)"
fill="#000000" stroke="none">
<path d="M2430 5114 c-84 -4 -224 -22 -322 -39 -990 -181 -1776 -913 -2024
-1885 -57 -225 -76 -383 -76 -630 0 -246 20 -405 76 -630 229 -904 943 -1619
1843 -1845 233 -58 387 -77 633 -77 356 0 635 54 967 188 744 298 1319 962
1511 1744 56 226 74 379 74 620 0 246 -19 404 -76 630 -279 1104 -1259 1889
-2401 1923 -77 2 -169 3 -205 1z m868 -1026 c7 -7 12 -19 12 -28 0 -9 -124
-277 -276 -594 -151 -318 -273 -580 -271 -582 2 -3 172 43 377 101 205 58 381
103 391 100 11 -4 19 -16 19 -28 0 -14 -115 -162 -311 -402 -172 -209 -386
-472 -477 -585 -229 -283 -802 -978 -840 -1017 -16 -18 -35 -33 -40 -33 -10 0
-42 27 -42 34 0 13 53 122 182 371 232 449 286 552 348 665 32 58 67 124 79
147 l21 43 -50 -20 c-365 -144 -813 -311 -827 -308 -36 7 -26 50 24 113 27 33
215 267 418 520 901 1123 1208 1501 1227 1508 20 8 23 8 36 -5z"/>
</g>
</svg>
