<?xml version="1.0" standalone="no"?>
<!DOCTYPE svg PUBLIC "-//W3C//DTD SVG 20010904//EN"
 "http://www.w3.org/TR/2001/REC-SVG-20010904/DTD/svg10.dtd">
<svg version="1.0" xmlns="http://www.w3.org/2000/svg"
 width="512.000000pt" height="512.000000pt" viewBox="0 0 512.000000 512.000000"
 preserveAspectRatio="xMidYMid meet">
<metadata>
Created by potrace 1.14, written by Peter Selinger 2001-2017
</metadata>
<g transform="translate(0.000000,512.000000) scale(0.100000,-0.100000)"
fill="#000000" stroke="none">
<path d="M0 2560 l0 -2560 2560 0 2560 0 0 2560 0 2560 -2560 0 -2560 0 0
-2560z m3160 1243 c0 -8 -104 -233 -231 -499 -128 -266 -230 -486 -228 -488 2
-2 146 37 319 85 173 49 321 87 328 84 8 -3 12 -13 10 -23 -3 -10 -158 -205
-344 -433 -186 -228 -428 -524 -538 -659 -488 -597 -513 -624 -524 -567 -4 20
251 524 457 902 32 61 58 112 56 114 -2 1 -164 -59 -359 -134 -195 -76 -362
-135 -371 -132 -8 4 -15 13 -15 22 0 15 382 495 1063 1338 159 197 302 371
317 387 29 31 60 32 60 3z"/>
</g>
</svg>
